<svg version="1.1" xmlns="http://www.w3.org/2000/svg" style="display: block;" viewBox="0 0 2048 2048" width="1000" height="1000" preserveAspectRatio="none">
<path transform="translate(0,0)" fill="rgb(255,254,255)" d="M 1724.58 1122.26 C 1737.43 1121.52 1755.04 1121.91 1768.17 1121.81 C 1770.25 1149.62 1768.39 1187.28 1768.92 1215.81 C 1769.19 1230.06 1769.67 1271.56 1768.06 1283.73 C 1760.13 1283.91 1753.39 1283.31 1744.97 1283.84 C 1648.8 1289.61 1556.31 1322.91 1478.54 1379.78 C 1450.34 1400.38 1423.42 1426.05 1400.82 1452.6 C 1345 1517.43 1307.42 1595.94 1291.94 1680.08 C 1285.79 1712.76 1285.31 1737.15 1282.74 1769.17 C 1245.77 1768.08 1205.69 1768.83 1168.5 1768.83 C 1153.15 1768.96 1137.8 1768.92 1122.46 1768.72 C 1120.65 1746.76 1122.8 1729.35 1124.72 1707.86 C 1130.74 1640.41 1147.53 1574.37 1174.45 1512.24 C 1249.6 1341.04 1392.59 1210.32 1570.73 1152.72 C 1576.58 1150.82 1582.38 1148.95 1588.31 1147.29 C 1616.71 1139.21 1645.56 1132.83 1674.72 1128.19 C 1689.03 1126.01 1712.32 1126.62 1724.58 1122.26 z"/>
<path transform="translate(0,0)" fill="rgb(255,254,255)" d="M 766.077 279.494 C 818.171 278.214 873.093 279.471 925.65 279.043 C 927.436 305.66 924.913 329.244 922.032 355.428 C 911.538 450.811 878.358 539.854 828.634 621.599 C 811.449 649.85 790.334 678.287 768.728 703.601 C 759.309 714.036 748.114 723.96 738.541 734.142 C 673.128 803.719 589.995 854.091 501.079 887.788 C 476.414 897.135 449.741 903.941 423.749 910.382 C 385.056 921.026 319.69 926.972 279.774 925.895 C 278.745 908.821 279.445 884.227 279.449 866.809 C 279.366 832.884 279.466 798.959 279.747 765.036 C 363.722 764.164 446.136 742.231 519.434 701.245 C 623.186 641.849 701.621 546.543 739.945 433.302 C 753.849 391.449 761.306 345.833 764.264 302.009 C 764.601 297.025 764.542 282.988 766.077 279.494 z"/>

<path transform="translate(0,0)" fill="rgb(255,254,255)" d="M 1416.06 279.563 C 1457.24 278.03 1505.27 279.368 1546.99 279.302 L 1600.78 279.158 C 1610.73 279.133 1624.42 278.707 1634.1 279.799 C 1675.02 284.438 1712.39 305.264 1737.85 337.63 C 1751.35 354.981 1760.73 375.162 1765.32 396.658 C 1770.47 421.288 1768.91 444.246 1768.86 469.35 L 1768.88 543.007 L 1768.93 599.42 C 1768.96 610.945 1769.48 626.31 1768.15 637.288 C 1706.67 637.046 1655.73 642.129 1594.79 650.179 C 1589.7 651.735 1580.97 652.725 1575.2 653.843 L 1530.45 662.735 C 1477.03 673.477 1425.45 690.273 1374.2 708.331 C 1363.27 712.182 1329.37 727.78 1321.08 728.286 L 1320.15 726.351 C 1320.75 721.108 1333.69 691.004 1336.59 683.164 C 1345.52 658.501 1354.06 633.699 1362.2 608.768 C 1378.75 557.997 1396.21 470.763 1402.57 419.043 C 1406.32 388.993 1409.08 358.826 1410.83 328.593 C 1411.43 319.133 1409.27 285.615 1413.16 280.017 L 1416.06 279.563 z"/>
<path transform="translate(0,0)" fill="rgb(255,254,255)" d="M 726.83 1318.81 L 727.817 1319.82 C 728.767 1323.7 717.48 1349.54 714.962 1356.18 C 698.327 1398.79 684.309 1442.38 672.985 1486.71 C 653.295 1564.26 641.359 1643.58 637.355 1723.5 C 636.74 1737.77 637.149 1754.55 636.938 1769.19 C 569.062 1767.38 498.871 1769.89 430.774 1768.88 C 389.102 1768.27 353.117 1754.79 323.692 1724.92 C 322.82 1724.07 321.954 1723.22 321.094 1722.36 C 270.946 1672.24 279.444 1611.91 279.484 1547.54 L 279.557 1411.81 C 293.046 1410.09 306.841 1411.69 320.211 1410.85 C 368.436 1407.82 415.266 1404.17 463.14 1396.33 C 553.79 1381 642.304 1354.98 726.83 1318.81 z"/>
<path transform="translate(0,0)" fill="rgb(255,254,255)" d="M 1755.1 797.49 L 1768.15 797.304 C 1770.36 823.371 1768.41 863.303 1768.91 890.354 C 1769.19 905.578 1769.76 948.736 1768.08 962.104 C 1752.43 961.891 1729.78 961.134 1714.51 962.186 C 1601.15 969.998 1497.22 1000.19 1396.47 1051.26 C 1384.63 1057.33 1373 1063.81 1361.61 1070.69 C 1355.33 1074.44 1319.8 1097.18 1314.98 1098.17 L 1312.53 1096.54 C 1331.08 1035.54 1320.18 977.64 1304.69 918.901 C 1302.73 911.485 1324.09 903.626 1330.8 900.207 C 1447.64 840.697 1575.82 806.93 1706.46 797.798 C 1721.77 796.73 1739.62 797.5 1755.1 797.49 z"/>
<path transform="translate(0,0)" fill="rgb(255,254,255)" d="M 732.824 949.687 L 734.446 950.939 C 734.949 955.975 728.311 988.468 727.68 997.607 C 724.349 1007.86 728.732 1029.93 726.481 1038.52 C 723.094 1051.44 746.964 1130.88 742.27 1134.84 C 735.488 1140.57 706.179 1154 697.611 1158.11 C 585.915 1211.65 464.263 1241.95 340.85 1250.53 C 328.036 1251.43 307.952 1250.79 294.75 1250.78 C 289.919 1250.86 284.708 1250.57 279.849 1250.39 C 278.782 1232.84 279.458 1209.21 279.464 1191.3 L 279.739 1086.72 C 298.209 1085.77 319.954 1087.35 337.499 1086.01 C 449.662 1077.62 558.901 1046.25 658.433 993.867 C 681.508 981.712 710.303 963.612 732.824 949.687 z"/>

<path transform="translate(0,0)" fill="rgb(255,254,255)" d="M 1087.62 279.456 C 1141.33 278.476 1195.99 279.714 1249.94 278.98 C 1252.28 307.999 1250.68 333.138 1248.5 361.784 C 1239.34 473.307 1210.71 582.364 1163.92 684.011 C 1158.9 695.088 1140.47 735.375 1134.19 742.853 C 1128.22 745.989 1115.15 740.837 1108.24 738.782 C 1061.32 726.336 1021.65 722.862 973.571 730.428 C 967.709 731.35 956.308 736.039 950.85 734.453 C 950.184 728.918 983.932 676.605 989.067 667.209 C 1045.37 564.166 1077.63 449.951 1086.22 333.01 C 1087.15 320.381 1084.55 290.379 1087.62 279.456 z"/>
<path transform="translate(0,0)" fill="rgb(255,254,255)" d="M 914.858 1303.92 C 922.546 1303.37 930.258 1306.41 939.326 1309.07 C 971.891 1318.62 1004.76 1323.22 1038.76 1321.91 C 1046.39 1321.62 1094.78 1313.38 1097.12 1314.36 C 1097.44 1319.97 1065.09 1369.56 1059.95 1378.96 C 1041.71 1412.83 1025.67 1447.84 1011.92 1483.76 C 983.763 1556.06 961.646 1664.2 961.933 1741.27 C 962.036 1751.1 962.235 1759.32 961.242 1769.16 C 908.883 1767.62 850.857 1768.82 798.026 1768.84 C 797.868 1766.23 797.767 1763.62 797.725 1761 C 797.181 1717.07 799.213 1680.71 805.209 1637.14 C 818.06 1543.78 843.435 1452.51 882.9 1366.82 C 888.479 1354.71 907.362 1311.65 914.858 1303.92 z"/>
<path transform="translate(0,0)" fill="rgb(255,254,255)" d="M 1006.76 876.026 C 1088.58 866.411 1162.69 924.961 1172.27 1006.78 C 1181.86 1088.6 1123.28 1162.7 1041.46 1172.25 C 959.675 1181.8 885.631 1123.26 876.052 1041.48 C 866.473 959.702 924.984 885.636 1006.76 876.026 z"/>

<path transform="translate(0,0)" fill="rgb(255,254,255)" d="M 444.284 279.564 C 459.957 278.906 598.763 277.608 603.313 280.821 C 603.991 288.481 602.376 295.146 602.008 302.628 C 596.124 422.293 516.865 529.529 408.709 577.268 C 404.289 578.792 399.668 580.717 395.302 582.394 C 364.333 594.287 330.907 601.39 297.695 602.065 C 291.723 602.186 285.902 603.767 280.119 605.331 C 278.765 587.034 279.434 562.319 279.451 543.609 L 279.558 441.189 C 297.158 440.084 311.011 438.809 327.81 433.72 C 389.347 415.079 433.245 360.148 440.266 296.597 C 440.744 292.276 440.005 283.727 442.08 280.14 L 444.284 279.564 z"/>
<path transform="translate(0,0)" fill="rgb(255,254,255)" d="M 1762.39 1444.08 C 1766.38 1443.94 1764.99 1443.23 1767.61 1444.98 C 1770.23 1454.8 1770.05 1592.52 1768.07 1607.97 C 1696.08 1607.64 1634.12 1654.31 1613.73 1723.02 C 1608.68 1740.05 1608.45 1751.83 1607.21 1769.05 C 1555.62 1768.23 1502.42 1768.84 1450.75 1768.92 C 1446.42 1768.66 1447.41 1769.36 1444.62 1767.07 C 1443.6 1762.28 1445.86 1752.81 1446.1 1747.22 C 1452.66 1594.32 1577.92 1464.43 1729.06 1447.11 C 1741.65 1445.67 1749.67 1448.62 1762.39 1444.08 z"/>
</svg>